<svg xmlns="http://www.w3.org/2000/svg" viewBox="0 0 200 200" fill="none" stroke-linecap="round" stroke-linejoin="round">
  <!-- Main storage chassis -->
  <rect x="24" y="44" width="152" height="112" rx="4" stroke="#1e40af" stroke-width="2" fill="none"/>

  <!-- Top bezel / control strip -->
  <rect x="24" y="44" width="152" height="18" rx="4" stroke="#1e40af" stroke-width="2" fill="none"/>
  <!-- Manufacturer logo area -->
  <rect x="34" y="49" width="28" height="8" rx="2" stroke="#60a5fa" stroke-width="1" fill="none"/>
  <line x1="38" y1="53" x2="58" y2="53" stroke="#60a5fa" stroke-width="1"/>
  <!-- Status LEDs on bezel -->
  <circle cx="132" cy="53" r="2" stroke="#1e40af" stroke-width="1.5" fill="#60a5fa"/>
  <circle cx="140" cy="53" r="2" stroke="#1e40af" stroke-width="1.5" fill="#60a5fa"/>
  <circle cx="148" cy="53" r="2" stroke="#1e40af" stroke-width="1.5" fill="none"/>
  <circle cx="156" cy="53" r="2" stroke="#1e40af" stroke-width="1.5" fill="none"/>
  <!-- Power indicator -->
  <circle cx="164" cy="53" r="2.5" stroke="#1e40af" stroke-width="1.5" fill="none"/>
  <line x1="164" y1="51" x2="164" y2="52.5" stroke="#1e40af" stroke-width="1"/>

  <!-- Drive bay grid - Row 1 -->
  <rect x="32" y="68" width="18" height="24" rx="1.5" stroke="#1e40af" stroke-width="1.5" fill="none"/>
  <rect x="53" y="68" width="18" height="24" rx="1.5" stroke="#1e40af" stroke-width="1.5" fill="none"/>
  <rect x="74" y="68" width="18" height="24" rx="1.5" stroke="#1e40af" stroke-width="1.5" fill="none"/>
  <rect x="95" y="68" width="18" height="24" rx="1.5" stroke="#1e40af" stroke-width="1.5" fill="none"/>
  <rect x="116" y="68" width="18" height="24" rx="1.5" stroke="#1e40af" stroke-width="1.5" fill="none"/>
  <rect x="137" y="68" width="18" height="24" rx="1.5" stroke="#1e40af" stroke-width="1.5" fill="none"/>
  <!-- Row 1 drive handles -->
  <line x1="37" y1="71" x2="45" y2="71" stroke="#60a5fa" stroke-width="1.2"/>
  <line x1="58" y1="71" x2="66" y2="71" stroke="#60a5fa" stroke-width="1.2"/>
  <line x1="79" y1="71" x2="87" y2="71" stroke="#60a5fa" stroke-width="1.2"/>
  <line x1="100" y1="71" x2="108" y2="71" stroke="#60a5fa" stroke-width="1.2"/>
  <line x1="121" y1="71" x2="129" y2="71" stroke="#60a5fa" stroke-width="1.2"/>
  <line x1="142" y1="71" x2="150" y2="71" stroke="#60a5fa" stroke-width="1.2"/>
  <!-- Row 1 drive LEDs -->
  <circle cx="35" cy="88" r="1.2" fill="#60a5fa"/>
  <circle cx="56" cy="88" r="1.2" fill="#60a5fa"/>
  <circle cx="77" cy="88" r="1.2" fill="#60a5fa"/>
  <circle cx="98" cy="88" r="1.2" fill="#60a5fa"/>
  <circle cx="119" cy="88" r="1.2" fill="#60a5fa"/>
  <circle cx="140" cy="88" r="1.2" fill="#60a5fa"/>
  <!-- Row 1 drive label lines -->
  <line x1="37" y1="80" x2="47" y2="80" stroke="#60a5fa" stroke-width="0.6"/>
  <line x1="58" y1="80" x2="68" y2="80" stroke="#60a5fa" stroke-width="0.6"/>
  <line x1="79" y1="80" x2="89" y2="80" stroke="#60a5fa" stroke-width="0.6"/>
  <line x1="100" y1="80" x2="110" y2="80" stroke="#60a5fa" stroke-width="0.6"/>
  <line x1="121" y1="80" x2="131" y2="80" stroke="#60a5fa" stroke-width="0.6"/>
  <line x1="142" y1="80" x2="152" y2="80" stroke="#60a5fa" stroke-width="0.6"/>

  <!-- Drive bay grid - Row 2 -->
  <rect x="32" y="96" width="18" height="24" rx="1.5" stroke="#1e40af" stroke-width="1.5" fill="none"/>
  <rect x="53" y="96" width="18" height="24" rx="1.5" stroke="#1e40af" stroke-width="1.5" fill="none"/>
  <rect x="74" y="96" width="18" height="24" rx="1.5" stroke="#1e40af" stroke-width="1.5" fill="none"/>
  <rect x="95" y="96" width="18" height="24" rx="1.5" stroke="#1e40af" stroke-width="1.5" fill="none"/>
  <rect x="116" y="96" width="18" height="24" rx="1.5" stroke="#1e40af" stroke-width="1.5" fill="none"/>
  <rect x="137" y="96" width="18" height="24" rx="1.5" stroke="#1e40af" stroke-width="1.5" fill="none"/>
  <!-- Row 2 drive handles -->
  <line x1="37" y1="99" x2="45" y2="99" stroke="#60a5fa" stroke-width="1.2"/>
  <line x1="58" y1="99" x2="66" y2="99" stroke="#60a5fa" stroke-width="1.2"/>
  <line x1="79" y1="99" x2="87" y2="99" stroke="#60a5fa" stroke-width="1.2"/>
  <line x1="100" y1="99" x2="108" y2="99" stroke="#60a5fa" stroke-width="1.2"/>
  <line x1="121" y1="99" x2="129" y2="99" stroke="#60a5fa" stroke-width="1.2"/>
  <line x1="142" y1="99" x2="150" y2="99" stroke="#60a5fa" stroke-width="1.2"/>
  <!-- Row 2 drive LEDs -->
  <circle cx="35" cy="116" r="1.2" fill="#60a5fa"/>
  <circle cx="56" cy="116" r="1.2" fill="#60a5fa"/>
  <circle cx="77" cy="116" r="1.2" fill="#60a5fa"/>
  <circle cx="98" cy="116" r="1.2" fill="#60a5fa"/>
  <circle cx="119" cy="116" r="1.2" fill="#60a5fa"/>
  <circle cx="140" cy="116" r="1.2" fill="#60a5fa"/>
  <!-- Row 2 drive label lines -->
  <line x1="37" y1="108" x2="47" y2="108" stroke="#60a5fa" stroke-width="0.6"/>
  <line x1="58" y1="108" x2="68" y2="108" stroke="#60a5fa" stroke-width="0.6"/>
  <line x1="79" y1="108" x2="89" y2="108" stroke="#60a5fa" stroke-width="0.6"/>
  <line x1="100" y1="108" x2="110" y2="108" stroke="#60a5fa" stroke-width="0.6"/>
  <line x1="121" y1="108" x2="131" y2="108" stroke="#60a5fa" stroke-width="0.6"/>
  <line x1="142" y1="108" x2="152" y2="108" stroke="#60a5fa" stroke-width="0.6"/>

  <!-- Drive bay grid - Row 3 -->
  <rect x="32" y="124" width="18" height="24" rx="1.5" stroke="#1e40af" stroke-width="1.5" fill="none"/>
  <rect x="53" y="124" width="18" height="24" rx="1.5" stroke="#1e40af" stroke-width="1.5" fill="none"/>
  <rect x="74" y="124" width="18" height="24" rx="1.5" stroke="#1e40af" stroke-width="1.5" fill="none"/>
  <rect x="95" y="124" width="18" height="24" rx="1.5" stroke="#1e40af" stroke-width="1.5" fill="none"/>
  <rect x="116" y="124" width="18" height="24" rx="1.5" stroke="#1e40af" stroke-width="1.5" fill="none"/>
  <rect x="137" y="124" width="18" height="24" rx="1.5" stroke="#1e40af" stroke-width="1.5" fill="none"/>
  <!-- Row 3 drive handles -->
  <line x1="37" y1="127" x2="45" y2="127" stroke="#60a5fa" stroke-width="1.2"/>
  <line x1="58" y1="127" x2="66" y2="127" stroke="#60a5fa" stroke-width="1.2"/>
  <line x1="79" y1="127" x2="87" y2="127" stroke="#60a5fa" stroke-width="1.2"/>
  <line x1="100" y1="127" x2="108" y2="127" stroke="#60a5fa" stroke-width="1.2"/>
  <line x1="121" y1="127" x2="129" y2="127" stroke="#60a5fa" stroke-width="1.2"/>
  <line x1="142" y1="127" x2="150" y2="127" stroke="#60a5fa" stroke-width="1.2"/>
  <!-- Row 3 drive LEDs -->
  <circle cx="35" cy="144" r="1.2" fill="#60a5fa"/>
  <circle cx="56" cy="144" r="1.2" fill="#60a5fa"/>
  <circle cx="77" cy="144" r="1.2" fill="#60a5fa"/>
  <circle cx="98" cy="144" r="1.2" fill="#60a5fa"/>
  <circle cx="119" cy="144" r="1.2" fill="#60a5fa"/>
  <circle cx="140" cy="144" r="1.2" fill="#60a5fa"/>
  <!-- Row 3 drive label lines -->
  <line x1="37" y1="136" x2="47" y2="136" stroke="#60a5fa" stroke-width="0.6"/>
  <line x1="58" y1="136" x2="68" y2="136" stroke="#60a5fa" stroke-width="0.6"/>
  <line x1="79" y1="136" x2="89" y2="136" stroke="#60a5fa" stroke-width="0.6"/>
  <line x1="100" y1="136" x2="110" y2="136" stroke="#60a5fa" stroke-width="0.6"/>
  <line x1="121" y1="136" x2="131" y2="136" stroke="#60a5fa" stroke-width="0.6"/>
  <line x1="142" y1="136" x2="152" y2="136" stroke="#60a5fa" stroke-width="0.6"/>

  <!-- Chassis feet -->
  <rect x="30" y="156" width="12" height="5" rx="1.5" stroke="#1e40af" stroke-width="1.5" fill="none"/>
  <rect x="158" y="156" width="12" height="5" rx="1.5" stroke="#1e40af" stroke-width="1.5" fill="none"/>
</svg>
