<svg xmlns="http://www.w3.org/2000/svg" viewBox="0 0 200 200" fill="none" stroke-linecap="round" stroke-linejoin="round">
  <!-- Rack Rails (left) -->
  <rect x="28" y="42" width="8" height="120" rx="2" stroke="#1e40af" stroke-width="2" fill="none"/>
  <line x1="32" y1="52" x2="32" y2="52" stroke="#60a5fa" stroke-width="2"/>
  <line x1="32" y1="62" x2="32" y2="62" stroke="#60a5fa" stroke-width="2"/>
  <line x1="32" y1="72" x2="32" y2="72" stroke="#60a5fa" stroke-width="2"/>
  <line x1="32" y1="82" x2="32" y2="82" stroke="#60a5fa" stroke-width="2"/>
  <line x1="32" y1="92" x2="32" y2="92" stroke="#60a5fa" stroke-width="2"/>
  <line x1="32" y1="102" x2="32" y2="102" stroke="#60a5fa" stroke-width="2"/>
  <line x1="32" y1="112" x2="32" y2="112" stroke="#60a5fa" stroke-width="2"/>
  <line x1="32" y1="122" x2="32" y2="122" stroke="#60a5fa" stroke-width="2"/>
  <line x1="32" y1="132" x2="32" y2="132" stroke="#60a5fa" stroke-width="2"/>
  <line x1="32" y1="142" x2="32" y2="142" stroke="#60a5fa" stroke-width="2"/>
  <line x1="32" y1="152" x2="32" y2="152" stroke="#60a5fa" stroke-width="2"/>
  <!-- Rack rail holes (dots) left -->
  <circle cx="32" cy="52" r="1.5" fill="#60a5fa"/>
  <circle cx="32" cy="62" r="1.5" fill="#60a5fa"/>
  <circle cx="32" cy="72" r="1.5" fill="#60a5fa"/>
  <circle cx="32" cy="92" r="1.5" fill="#60a5fa"/>
  <circle cx="32" cy="102" r="1.5" fill="#60a5fa"/>
  <circle cx="32" cy="112" r="1.5" fill="#60a5fa"/>
  <circle cx="32" cy="132" r="1.5" fill="#60a5fa"/>
  <circle cx="32" cy="142" r="1.5" fill="#60a5fa"/>
  <circle cx="32" cy="152" r="1.5" fill="#60a5fa"/>

  <!-- Rack Rails (right) -->
  <rect x="164" y="42" width="8" height="120" rx="2" stroke="#1e40af" stroke-width="2" fill="none"/>
  <circle cx="168" cy="52" r="1.5" fill="#60a5fa"/>
  <circle cx="168" cy="62" r="1.5" fill="#60a5fa"/>
  <circle cx="168" cy="72" r="1.5" fill="#60a5fa"/>
  <circle cx="168" cy="92" r="1.5" fill="#60a5fa"/>
  <circle cx="168" cy="102" r="1.5" fill="#60a5fa"/>
  <circle cx="168" cy="112" r="1.5" fill="#60a5fa"/>
  <circle cx="168" cy="132" r="1.5" fill="#60a5fa"/>
  <circle cx="168" cy="142" r="1.5" fill="#60a5fa"/>
  <circle cx="168" cy="152" r="1.5" fill="#60a5fa"/>

  <!-- Server Unit 1 (Top 2U) -->
  <rect x="36" y="46" width="128" height="34" rx="3" stroke="#1e40af" stroke-width="2" fill="none"/>
  <!-- Drive bays row -->
  <rect x="44" y="52" width="10" height="14" rx="1" stroke="#1e40af" stroke-width="1.5" fill="none"/>
  <rect x="57" y="52" width="10" height="14" rx="1" stroke="#1e40af" stroke-width="1.5" fill="none"/>
  <rect x="70" y="52" width="10" height="14" rx="1" stroke="#1e40af" stroke-width="1.5" fill="none"/>
  <rect x="83" y="52" width="10" height="14" rx="1" stroke="#1e40af" stroke-width="1.5" fill="none"/>
  <!-- Drive bay handles -->
  <line x1="47" y1="55" x2="51" y2="55" stroke="#60a5fa" stroke-width="1"/>
  <line x1="60" y1="55" x2="64" y2="55" stroke="#60a5fa" stroke-width="1"/>
  <line x1="73" y1="55" x2="77" y2="55" stroke="#60a5fa" stroke-width="1"/>
  <line x1="86" y1="55" x2="90" y2="55" stroke="#60a5fa" stroke-width="1"/>
  <!-- Drive bay LED indicators -->
  <circle cx="49" cy="62" r="1" fill="#60a5fa"/>
  <circle cx="62" cy="62" r="1" fill="#60a5fa"/>
  <circle cx="75" cy="62" r="1" fill="#60a5fa"/>
  <circle cx="88" cy="62" r="1" fill="#60a5fa"/>
  <!-- Status LEDs -->
  <circle cx="140" cy="56" r="2.5" stroke="#1e40af" stroke-width="1.5" fill="#60a5fa"/>
  <circle cx="150" cy="56" r="2.5" stroke="#1e40af" stroke-width="1.5" fill="none"/>
  <!-- Power button -->
  <circle cx="155" cy="68" r="3" stroke="#1e40af" stroke-width="1.5" fill="none"/>
  <line x1="155" y1="65.5" x2="155" y2="67" stroke="#1e40af" stroke-width="1.5"/>
  <!-- Ventilation slits -->
  <line x1="106" y1="54" x2="106" y2="66" stroke="#60a5fa" stroke-width="0.8"/>
  <line x1="110" y1="54" x2="110" y2="66" stroke="#60a5fa" stroke-width="0.8"/>
  <line x1="114" y1="54" x2="114" y2="66" stroke="#60a5fa" stroke-width="0.8"/>
  <line x1="118" y1="54" x2="118" y2="66" stroke="#60a5fa" stroke-width="0.8"/>
  <line x1="122" y1="54" x2="122" y2="66" stroke="#60a5fa" stroke-width="0.8"/>
  <!-- Rack ears / mounting flanges -->
  <line x1="40" y1="72" x2="40" y2="74" stroke="#1e40af" stroke-width="1.5"/>
  <line x1="160" y1="72" x2="160" y2="74" stroke="#1e40af" stroke-width="1.5"/>

  <!-- Server Unit 2 (Middle 2U) -->
  <rect x="36" y="84" width="128" height="34" rx="3" stroke="#1e40af" stroke-width="2" fill="none"/>
  <rect x="44" y="90" width="10" height="14" rx="1" stroke="#1e40af" stroke-width="1.5" fill="none"/>
  <rect x="57" y="90" width="10" height="14" rx="1" stroke="#1e40af" stroke-width="1.5" fill="none"/>
  <rect x="70" y="90" width="10" height="14" rx="1" stroke="#1e40af" stroke-width="1.5" fill="none"/>
  <rect x="83" y="90" width="10" height="14" rx="1" stroke="#1e40af" stroke-width="1.5" fill="none"/>
  <line x1="47" y1="93" x2="51" y2="93" stroke="#60a5fa" stroke-width="1"/>
  <line x1="60" y1="93" x2="64" y2="93" stroke="#60a5fa" stroke-width="1"/>
  <line x1="73" y1="93" x2="77" y2="93" stroke="#60a5fa" stroke-width="1"/>
  <line x1="86" y1="93" x2="90" y2="93" stroke="#60a5fa" stroke-width="1"/>
  <circle cx="49" cy="100" r="1" fill="#60a5fa"/>
  <circle cx="62" cy="100" r="1" fill="#60a5fa"/>
  <circle cx="75" cy="100" r="1" fill="#60a5fa"/>
  <circle cx="88" cy="100" r="1" fill="#60a5fa"/>
  <circle cx="140" cy="94" r="2.5" stroke="#1e40af" stroke-width="1.5" fill="#60a5fa"/>
  <circle cx="150" cy="94" r="2.5" stroke="#1e40af" stroke-width="1.5" fill="none"/>
  <circle cx="155" cy="106" r="3" stroke="#1e40af" stroke-width="1.5" fill="none"/>
  <line x1="155" y1="103.5" x2="155" y2="105" stroke="#1e40af" stroke-width="1.5"/>
  <line x1="106" y1="92" x2="106" y2="104" stroke="#60a5fa" stroke-width="0.8"/>
  <line x1="110" y1="92" x2="110" y2="104" stroke="#60a5fa" stroke-width="0.8"/>
  <line x1="114" y1="92" x2="114" y2="104" stroke="#60a5fa" stroke-width="0.8"/>
  <line x1="118" y1="92" x2="118" y2="104" stroke="#60a5fa" stroke-width="0.8"/>
  <line x1="122" y1="92" x2="122" y2="104" stroke="#60a5fa" stroke-width="0.8"/>

  <!-- Server Unit 3 (Bottom 2U) -->
  <rect x="36" y="122" width="128" height="34" rx="3" stroke="#1e40af" stroke-width="2" fill="none"/>
  <rect x="44" y="128" width="10" height="14" rx="1" stroke="#1e40af" stroke-width="1.5" fill="none"/>
  <rect x="57" y="128" width="10" height="14" rx="1" stroke="#1e40af" stroke-width="1.5" fill="none"/>
  <rect x="70" y="128" width="10" height="14" rx="1" stroke="#1e40af" stroke-width="1.5" fill="none"/>
  <rect x="83" y="128" width="10" height="14" rx="1" stroke="#1e40af" stroke-width="1.5" fill="none"/>
  <line x1="47" y1="131" x2="51" y2="131" stroke="#60a5fa" stroke-width="1"/>
  <line x1="60" y1="131" x2="64" y2="131" stroke="#60a5fa" stroke-width="1"/>
  <line x1="73" y1="131" x2="77" y2="131" stroke="#60a5fa" stroke-width="1"/>
  <line x1="86" y1="131" x2="90" y2="131" stroke="#60a5fa" stroke-width="1"/>
  <circle cx="49" cy="138" r="1" fill="#60a5fa"/>
  <circle cx="62" cy="138" r="1" fill="#60a5fa"/>
  <circle cx="75" cy="138" r="1" fill="#60a5fa"/>
  <circle cx="88" cy="138" r="1" fill="#60a5fa"/>
  <circle cx="140" cy="132" r="2.5" stroke="#1e40af" stroke-width="1.5" fill="#60a5fa"/>
  <circle cx="150" cy="132" r="2.5" stroke="#1e40af" stroke-width="1.5" fill="#60a5fa"/>
  <circle cx="155" cy="144" r="3" stroke="#1e40af" stroke-width="1.5" fill="none"/>
  <line x1="155" y1="141.5" x2="155" y2="143" stroke="#1e40af" stroke-width="1.5"/>
  <line x1="106" y1="130" x2="106" y2="142" stroke="#60a5fa" stroke-width="0.8"/>
  <line x1="110" y1="130" x2="110" y2="142" stroke="#60a5fa" stroke-width="0.8"/>
  <line x1="114" y1="130" x2="114" y2="142" stroke="#60a5fa" stroke-width="0.8"/>
  <line x1="118" y1="130" x2="118" y2="142" stroke="#60a5fa" stroke-width="0.8"/>
  <line x1="122" y1="130" x2="122" y2="142" stroke="#60a5fa" stroke-width="0.8"/>

  <!-- Rack feet -->
  <rect x="30" y="162" width="4" height="6" rx="1" stroke="#1e40af" stroke-width="1.5" fill="none"/>
  <rect x="166" y="162" width="4" height="6" rx="1" stroke="#1e40af" stroke-width="1.5" fill="none"/>

  <!-- Top mounting bar -->
  <line x1="36" y1="42" x2="164" y2="42" stroke="#1e40af" stroke-width="2"/>
</svg>
