<svg xmlns="http://www.w3.org/2000/svg" viewBox="0 0 400 300" fill="none">
  <rect width="400" height="300" rx="12" fill="#f8fafc"/>
  <rect x="60" y="110" width="280" height="60" rx="6" fill="#1e293b"/>
  <rect x="68" y="118" width="264" height="44" rx="3" fill="#334155"/>
  <rect x="82" y="138" width="8" height="12" rx="1" fill="#64748b"/>
  <rect x="96" y="138" width="8" height="12" rx="1" fill="#64748b"/>
  <rect x="110" y="138" width="8" height="12" rx="1" fill="#64748b"/>
  <rect x="124" y="138" width="8" height="12" rx="1" fill="#64748b"/>
  <rect x="138" y="138" width="8" height="12" rx="1" fill="#64748b"/>
  <rect x="152" y="138" width="8" height="12" rx="1" fill="#64748b"/>
  <rect x="166" y="138" width="8" height="12" rx="1" fill="#64748b"/>
  <rect x="180" y="138" width="8" height="12" rx="1" fill="#64748b"/>
  <rect x="194" y="138" width="8" height="12" rx="1" fill="#64748b"/>
  <rect x="208" y="138" width="8" height="12" rx="1" fill="#64748b"/>
  <rect x="222" y="138" width="8" height="12" rx="1" fill="#64748b"/>
  <rect x="236" y="138" width="8" height="12" rx="1" fill="#64748b"/>
  <circle cx="310" cy="132" r="4" fill="#22c55e"/>
  <circle cx="310" cy="146" r="4" fill="#f59e0b"/>
  <circle cx="298" cy="132" r="4" fill="#3b82f6"/>
  <text x="200" y="222" text-anchor="middle" font-family="Inter, Arial, sans-serif" font-size="14" font-weight="600" fill="#475569">HPE Aruba CX</text>
  <text x="200" y="242" text-anchor="middle" font-family="Inter, Arial, sans-serif" font-size="11" fill="#94a3b8">Enterprise Network Equipment</text>
</svg>