<svg xmlns="http://www.w3.org/2000/svg" viewBox="0 0 400 300" fill="none">
  <rect width="400" height="300" rx="12" fill="#f8fafc"/>
  <rect x="60" y="90" width="280" height="50" rx="6" fill="#1e293b"/>
  <rect x="68" y="98" width="264" height="34" rx="3" fill="#334155"/>
  <rect x="78" y="106" width="50" height="3" rx="1.5" fill="#64748b"/>
  <rect x="78" y="113" width="35" height="3" rx="1.5" fill="#64748b"/>
  <rect x="78" y="120" width="42" height="3" rx="1.5" fill="#64748b"/>
  <circle cx="310" cy="115" r="5" fill="#22c55e"/>
  <circle cx="295" cy="115" r="5" fill="#3b82f6"/>
  <rect x="60" y="148" width="280" height="50" rx="6" fill="#1e293b"/>
  <rect x="68" y="156" width="264" height="34" rx="3" fill="#334155"/>
  <rect x="78" y="164" width="50" height="3" rx="1.5" fill="#64748b"/>
  <rect x="78" y="171" width="35" height="3" rx="1.5" fill="#64748b"/>
  <rect x="78" y="178" width="42" height="3" rx="1.5" fill="#64748b"/>
  <circle cx="310" cy="173" r="5" fill="#22c55e"/>
  <circle cx="295" cy="173" r="5" fill="#3b82f6"/>
  <text x="200" y="248" text-anchor="middle" font-family="Inter, Arial, sans-serif" font-size="14" font-weight="600" fill="#475569">Dell PowerEdge R750</text>
  <text x="200" y="268" text-anchor="middle" font-family="Inter, Arial, sans-serif" font-size="11" fill="#94a3b8">Enterprise Rack Server</text>
</svg>