<svg xmlns="http://www.w3.org/2000/svg" viewBox="0 0 400 300" fill="none">
  <rect width="400" height="300" rx="12" fill="#f8fafc"/>
  <rect x="70" y="80" width="260" height="120" rx="8" fill="#1e293b"/>
  <rect x="80" y="90" width="240" height="100" rx="4" fill="#334155"/>
  <rect x="95" y="105" width="12" height="20" rx="2" fill="#64748b"/>
  <rect x="113" y="105" width="12" height="20" rx="2" fill="#64748b"/>
  <rect x="131" y="105" width="12" height="20" rx="2" fill="#64748b"/>
  <rect x="149" y="105" width="12" height="20" rx="2" fill="#64748b"/>
  <rect x="167" y="105" width="12" height="20" rx="2" fill="#64748b"/>
  <rect x="185" y="105" width="12" height="20" rx="2" fill="#64748b"/>
  <rect x="203" y="105" width="12" height="20" rx="2" fill="#64748b"/>
  <rect x="221" y="105" width="12" height="20" rx="2" fill="#64748b"/>
  <rect x="239" y="105" width="12" height="20" rx="2" fill="#64748b"/>
  <rect x="257" y="105" width="12" height="20" rx="2" fill="#64748b"/>
  <rect x="95" y="140" width="12" height="20" rx="2" fill="#64748b"/>
  <rect x="113" y="140" width="12" height="20" rx="2" fill="#64748b"/>
  <rect x="131" y="140" width="12" height="20" rx="2" fill="#64748b"/>
  <rect x="149" y="140" width="12" height="20" rx="2" fill="#64748b"/>
  <rect x="167" y="140" width="12" height="20" rx="2" fill="#64748b"/>
  <rect x="185" y="140" width="12" height="20" rx="2" fill="#64748b"/>
  <rect x="203" y="140" width="12" height="20" rx="2" fill="#64748b"/>
  <rect x="221" y="140" width="12" height="20" rx="2" fill="#64748b"/>
  <rect x="239" y="140" width="12" height="20" rx="2" fill="#64748b"/>
  <rect x="257" y="140" width="12" height="20" rx="2" fill="#64748b"/>
  <circle cx="296" cy="115" r="4" fill="#22c55e"/>
  <circle cx="296" cy="130" r="4" fill="#3b82f6"/>
  <circle cx="296" cy="145" r="4" fill="#f59e0b"/>
  <text x="200" y="244" text-anchor="middle" font-family="Inter, Arial, sans-serif" font-size="14" font-weight="600" fill="#475569">HPE Nimble Storage</text>
  <text x="200" y="264" text-anchor="middle" font-family="Inter, Arial, sans-serif" font-size="11" fill="#94a3b8">Enterprise Storage Array</text>
</svg>