<svg xmlns="http://www.w3.org/2000/svg" viewBox="0 0 400 300" fill="none">
  <rect width="400" height="300" rx="12" fill="#f8fafc"/>
  <rect x="140" y="50" width="120" height="180" rx="8" fill="#1e293b"/>
  <rect x="148" y="58" width="104" height="164" rx="4" fill="#334155"/>
  <rect x="158" y="70" width="84" height="40" rx="2" fill="#475569"/>
  <rect x="168" y="78" width="64" height="24" rx="1" fill="#64748b" opacity="0.5"/>
  <rect x="158" y="120" width="84" height="6" rx="1" fill="#475569"/>
  <rect x="158" y="134" width="84" height="6" rx="1" fill="#475569"/>
  <circle cx="200" cy="160" r="12" fill="#475569"/>
  <circle cx="200" cy="160" r="8" fill="#334155"/>
  <rect x="158" y="186" width="20" height="8" rx="2" fill="#64748b"/>
  <rect x="184" y="186" width="20" height="8" rx="2" fill="#64748b"/>
  <rect x="210" y="186" width="20" height="8" rx="2" fill="#64748b"/>
  <circle cx="240" cy="68" r="4" fill="#22c55e"/>
  <text x="200" y="262" text-anchor="middle" font-family="Inter, Arial, sans-serif" font-size="14" font-weight="600" fill="#475569">HP Z6 G5</text>
  <text x="200" y="282" text-anchor="middle" font-family="Inter, Arial, sans-serif" font-size="11" fill="#94a3b8">Professional Workstation</text>
</svg>